HIERARCHY
ROOT Hips
{
    OFFSET 0.000000 97.120003 0.000000
    CHANNELS 6 Xposition Yposition Zposition Yrotation Xrotation Zrotation
    JOINT RightUpLeg
    {
        OFFSET -11.000000 -0.000000 0.000000
        CHANNELS 3 Yrotation Xrotation Zrotation
        JOINT RightLeg
        {
            OFFSET 0.000000 -45.062000 0.000000
            CHANNELS 3 Yrotation Xrotation Zrotation
            JOINT RightFoot
            {
                OFFSET 0.000000 -42.057999 0.000000
                CHANNELS 3 Yrotation Xrotation Zrotation
                End Site
                {
                    OFFSET 0.000000 -10.000000 15.120000
                }
            }
        }
    }
    JOINT LeftUpLeg
    {
        OFFSET 11.000000 -0.000000 0.000000
        CHANNELS 3 Yrotation Xrotation Zrotation
        JOINT LeftLeg
        {
            OFFSET 0.000000 -45.062000 0.000000
            CHANNELS 3 Yrotation Xrotation Zrotation
            JOINT LeftFoot
            {
                OFFSET 0.000000 -42.057999 0.000000
                CHANNELS 3 Yrotation Xrotation Zrotation
                End Site
                {
                    OFFSET 0.000000 -10.000000 15.120000
                }
            }
        }
    }
    JOINT Spine
    {
        OFFSET 0.000000 8.120000 0.000000
        CHANNELS 3 Yrotation Xrotation Zrotation
        JOINT Spine1
        {
            OFFSET 0.000000 17.980000 0.000000
            CHANNELS 3 Yrotation Xrotation Zrotation
            JOINT Spine2
            {
                OFFSET 0.000000 12.760000 0.000000
                CHANNELS 3 Yrotation Xrotation Zrotation
                JOINT Neck
                {
                    OFFSET 0.000000 19.139999 0.000000
                    CHANNELS 3 Yrotation Xrotation Zrotation
                    JOINT Neck1
                    {
                        OFFSET 0.000000 4.250000 0.000000
                        CHANNELS 3 Yrotation Xrotation Zrotation
                        JOINT Head
                        {
                            OFFSET 0.000000 4.250000 0.000000
                            CHANNELS 3 Yrotation Xrotation Zrotation
                            End Site
                            {
                                OFFSET 0.000000 19.120001 0.000000
                            }
                        }
                    }
                }
                JOINT RightShoulder
                {
                    OFFSET -2.900000 13.340000 0.000000
                    CHANNELS 3 Yrotation Xrotation Zrotation
                    JOINT RightArm
                    {
                        OFFSET -16.100000 0.000000 0.000000
                        CHANNELS 3 Yrotation Xrotation Zrotation
                        JOINT RightForeArm
                        {
                            OFFSET -28.000000 0.000000 0.000000
                            CHANNELS 3 Yrotation Xrotation Zrotation
                            JOINT RightHand
                            {
                                OFFSET -26.000000 0.000000 0.000000
                                CHANNELS 3 Yrotation Xrotation Zrotation
                                JOINT RightHandThumb1
                                {
                                    OFFSET -1.937000 -0.484000 2.518000
                                    CHANNELS 3 Yrotation Xrotation Zrotation
                                    JOINT RightHandThumb2
                                    {
                                        OFFSET -3.872000 0.000000 0.000000
                                        CHANNELS 3 Yrotation Xrotation Zrotation
                                        JOINT RightHandThumb3
                                        {
                                            OFFSET -2.690000 0.000000 0.000000
                                            CHANNELS 3 Yrotation Xrotation Zrotation
                                            End Site
                                            {
                                                OFFSET -2.537000 0.000000 0.000000
                                            }
                                        }
                                    }
                                }
                                JOINT RightInHandIndex
                                {
                                    OFFSET -3.389000 0.535000 2.080000
                                    CHANNELS 3 Yrotation Xrotation Zrotation
                                    JOINT RightHandIndex1
                                    {
                                        OFFSET -5.485000 -0.096000 1.051000
                                        CHANNELS 3 Yrotation Xrotation Zrotation
                                        JOINT RightHandIndex2
                                        {
                                            OFFSET -3.806000 0.000000 0.000000
                                            CHANNELS 3 Yrotation Xrotation Zrotation
                                            JOINT RightHandIndex3
                                            {
                                                OFFSET -2.158000 0.000000 0.000000
                                                CHANNELS 3 Yrotation Xrotation Zrotation
                                                End Site
                                                {
                                                    OFFSET -1.898000 0.000000 0.000000
                                                }
                                            }
                                        }
                                    }
                                }
                                JOINT RightInHandMiddle
                                {
                                    OFFSET -3.556000 0.544000 0.796000
                                    CHANNELS 3 Yrotation Xrotation Zrotation
                                    JOINT RightHandMiddle1
                                    {
                                        OFFSET -5.441000 -0.088000 0.330000
                                        CHANNELS 3 Yrotation Xrotation Zrotation
                                        JOINT RightHandMiddle2
                                        {
                                            OFFSET -4.153000 0.000000 0.000000
                                            CHANNELS 3 Yrotation Xrotation Zrotation
                                            JOINT RightHandMiddle3
                                            {
                                                OFFSET -2.603000 0.000000 0.000000
                                                CHANNELS 3 Yrotation Xrotation Zrotation
                                                End Site
                                                {
                                                    OFFSET -2.076000 0.000000 0.000000
                                                }
                                            }
                                        }
                                    }
                                }
                                JOINT RightInHandRing
                                {
                                    OFFSET -3.539000 0.566000 -0.136000
                                    CHANNELS 3 Yrotation Xrotation Zrotation
                                    JOINT RightHandRing1
                                    {
                                        OFFSET -4.873000 -0.023000 -0.504000
                                        CHANNELS 3 Yrotation Xrotation Zrotation
                                        JOINT RightHandRing2
                                        {
                                            OFFSET -3.619000 0.000000 0.000000
                                            CHANNELS 3 Yrotation Xrotation Zrotation
                                            JOINT RightHandRing3
                                            {
                                                OFFSET -2.511000 0.000000 0.000000
                                                CHANNELS 3 Yrotation Xrotation Zrotation
                                                End Site
                                                {
                                                    OFFSET -1.952000 0.000000 0.000000
                                                }
                                            }
                                        }
                                    }
                                }
                                JOINT RightInHandPinky
                                {
                                    OFFSET -3.324000 0.494000 -1.264000
                                    CHANNELS 3 Yrotation Xrotation Zrotation
                                    JOINT RightHandPinky1
                                    {
                                        OFFSET -4.354000 -0.023000 -1.147000
                                        CHANNELS 3 Yrotation Xrotation Zrotation
                                        JOINT RightHandPinky2
                                        {
                                            OFFSET -2.898000 0.000000 0.000000
                                            CHANNELS 3 Yrotation Xrotation Zrotation
                                            JOINT RightHandPinky3
                                            {
                                                OFFSET -1.831000 0.000000 0.000000
                                                CHANNELS 3 Yrotation Xrotation Zrotation
                                                End Site
                                                {
                                                    OFFSET -1.730000 0.000000 0.000000
                                                }
                                            }
                                        }
                                    }
                                }
                            }
                        }
                    }
                }
                JOINT LeftShoulder
                {
                    OFFSET 2.900000 13.340000 0.000000
                    CHANNELS 3 Yrotation Xrotation Zrotation
                    JOINT LeftArm
                    {
                        OFFSET 16.100000 0.000000 0.000000
                        CHANNELS 3 Yrotation Xrotation Zrotation
                        JOINT LeftForeArm
                        {
                            OFFSET 28.000000 0.000000 0.000000
                            CHANNELS 3 Yrotation Xrotation Zrotation
                            JOINT LeftHand
                            {
                                OFFSET 26.000000 0.000000 0.000000
                                CHANNELS 3 Yrotation Xrotation Zrotation
                                JOINT LeftHandThumb1
                                {
                                    OFFSET 1.937000 -0.484000 2.518000
                                    CHANNELS 3 Yrotation Xrotation Zrotation
                                    JOINT LeftHandThumb2
                                    {
                                        OFFSET 3.872000 0.000000 0.000000
                                        CHANNELS 3 Yrotation Xrotation Zrotation
                                        JOINT LeftHandThumb3
                                        {
                                            OFFSET 2.690000 0.000000 0.000000
                                            CHANNELS 3 Yrotation Xrotation Zrotation
                                            End Site
                                            {
                                                OFFSET 2.537000 0.000000 0.000000
                                            }
                                        }
                                    }
                                }
                                JOINT LeftInHandIndex
                                {
                                    OFFSET 3.389000 0.535000 2.080000
                                    CHANNELS 3 Yrotation Xrotation Zrotation
                                    JOINT LeftHandIndex1
                                    {
                                        OFFSET 5.485000 -0.096000 1.051000
                                        CHANNELS 3 Yrotation Xrotation Zrotation
                                        JOINT LeftHandIndex2
                                        {
                                            OFFSET 3.806000 0.000000 0.000000
                                            CHANNELS 3 Yrotation Xrotation Zrotation
                                            JOINT LeftHandIndex3
                                            {
                                                OFFSET 2.158000 0.000000 0.000000
                                                CHANNELS 3 Yrotation Xrotation Zrotation
                                                End Site
                                                {
                                                    OFFSET 1.898000 0.000000 0.000000
                                                }
                                            }
                                        }
                                    }
                                }
                                JOINT LeftInHandMiddle
                                {
                                    OFFSET 3.556000 0.544000 0.796000
                                    CHANNELS 3 Yrotation Xrotation Zrotation
                                    JOINT LeftHandMiddle1
                                    {
                                        OFFSET 5.441000 -0.088000 0.330000
                                        CHANNELS 3 Yrotation Xrotation Zrotation
                                        JOINT LeftHandMiddle2
                                        {
                                            OFFSET 4.153000 0.000000 0.000000
                                            CHANNELS 3 Yrotation Xrotation Zrotation
                                            JOINT LeftHandMiddle3
                                            {
                                                OFFSET 2.603000 0.000000 0.000000
                                                CHANNELS 3 Yrotation Xrotation Zrotation
                                                End Site
                                                {
                                                    OFFSET 2.076000 0.000000 0.000000
                                                }
                                            }
                                        }
                                    }
                                }
                                JOINT LeftInHandRing
                                {
                                    OFFSET 3.539000 0.566000 -0.136000
                                    CHANNELS 3 Yrotation Xrotation Zrotation
                                    JOINT LeftHandRing1
                                    {
                                        OFFSET 4.873000 -0.023000 -0.504000
                                        CHANNELS 3 Yrotation Xrotation Zrotation
                                        JOINT LeftHandRing2
                                        {
                                            OFFSET 3.619000 0.000000 0.000000
                                            CHANNELS 3 Yrotation Xrotation Zrotation
                                            JOINT LeftHandRing3
                                            {
                                                OFFSET 2.511000 0.000000 0.000000
                                                CHANNELS 3 Yrotation Xrotation Zrotation
                                                End Site
                                                {
                                                    OFFSET 1.952000 0.000000 0.000000
                                                }
                                            }
                                        }
                                    }
                                }
                                JOINT LeftInHandPinky
                                {
                                    OFFSET 3.324000 0.494000 -1.264000
                                    CHANNELS 3 Yrotation Xrotation Zrotation
                                    JOINT LeftHandPinky1
                                    {
                                        OFFSET 4.354000 -0.023000 -1.147000
                                        CHANNELS 3 Yrotation Xrotation Zrotation
                                        JOINT LeftHandPinky2
                                        {
                                            OFFSET 2.898000 0.000000 0.000000
                                            CHANNELS 3 Yrotation Xrotation Zrotation
                                            JOINT LeftHandPinky3
                                            {
                                                OFFSET 1.831000 0.000000 0.000000
                                                CHANNELS 3 Yrotation Xrotation Zrotation
                                                End Site
                                                {
                                                    OFFSET 1.730000 0.000000 0.000000
                                                }
                                            }
                                        }
                                    }
                                }
                            }
                        }
                    }
                }
            }
        }
    }
}
MOTION
Frames: 4
Frame Time: 0.011111
0.000000 97.119995 0.000000 0.000000 0.000000 0.000000 0.000000 0.000000 0.000000 0.000000 0.000000 0.000000 0.000000 0.000000 0.000000 0.000000 0.000000 0.000000 0.000000 0.000000 0.000000 0.000000 0.000000 0.000000 0.000000 0.000000 0.000000 0.000000 0.000000 0.000000 0.000000 0.000000 0.000000 0.000000 0.000000 0.000000 0.000000 0.000000 0.000000 0.000000 0.000000 0.000000 0.000000 0.000000 0.000000 0.000000 0.000000 0.000000 0.000000 0.000000 0.000000 0.000000 0.000000 0.000000 0.000000 0.000000 0.000000 0.000000 0.000000 0.000000 0.000000 0.000000 0.000000 0.000000 0.000000 0.000000 0.000000 0.000000 0.000000 0.000000 0.000000 0.000000 0.000000 0.000000 0.000000 0.000000 0.000000 0.000000 0.000000 0.000000 0.000000 0.000000 0.000000 0.000000 0.000000 0.000000 0.000000 0.000000 0.000000 0.000000 0.000000 0.000000 0.000000 0.000000 0.000000 0.000000 0.000000 0.000000 0.000000 0.000000 0.000000 0.000000 0.000000 0.000000 0.000000 0.000000 0.000000 0.000000 0.000000 0.000000 0.000000 0.000000 0.000000 0.000000 0.000000 0.000000 0.000000 0.000000 0.000000 0.000000 0.000000 0.000000 0.000000 0.000000 0.000000 0.000000 0.000000 0.000000 0.000000 0.000000 0.000000 0.000000 0.000000 0.000000 0.000000 0.000000 0.000000 0.000000 0.000000 0.000000 0.000000 0.000000 0.000000 0.000000 0.000000 0.000000 0.000000 0.000000 0.000000 0.000000 0.000000 0.000000 0.000000 0.000000 0.000000 0.000000 0.000000 0.000000 0.000000 0.000000 0.000000 0.000000 0.000000 0.000000 0.000000 0.000000 0.000000 0.000000 0.000000 0.000000 0.000000 0.000000 0.000000 0.000000 0.000000 0.000000 0.000000 0.000000 0.000000 0.000000
-0.190414 97.038696 1.646248 177.305618 -178.865479 -179.984085 177.853836 175.374786 -179.938278 3.878607 0.131401 0.139405 174.865311 -176.010574 -179.831039 175.369537 175.752182 179.428299 4.664637 1.048932 -0.405124 4.893521 -3.650163 0.287802 0.525077 4.778330 -0.037194 0.524935 4.686975 -0.092718 2.471480 3.402746 0.074026 180.000000 -175.643723 179.817429 180.000000 -174.917679 179.810913 176.306656 -176.249512 -179.871689 2.151984 0.868959 -1.031982 8.042595 -5.340911 87.302719 4.720660 1.670579 1.336041 176.689011 176.565598 172.769196 46.555695 27.908329 -4.450150 0.000007 -0.000000 7.147233 180.000000 180.000000 -175.239944 0.000000 0.000001 0.000003 15.000006 0.000001 21.891319 180.000000 -180.000000 -162.088928 180.000000 180.000000 -167.462234 0.000000 0.000001 0.000003 180.000000 -180.000000 -158.027390 0.000001 -0.000002 21.972612 180.000000 180.000000 -165.366241 0.000000 0.000001 0.000003 170.000000 -180.000000 -154.726959 0.000005 0.000001 25.273062 0.000000 0.000002 16.831856 0.000000 0.000001 0.000003 160.000015 179.999985 -162.820557 0.000003 -0.000001 25.769142 0.000002 -0.000000 17.162252 177.510345 -177.476685 179.004776 165.534409 -171.652008 96.131851 176.763107 -177.089600 178.514664 5.901036 1.377457 3.442645 140.096222 137.336044 -178.627731 0.000003 0.000000 -7.064490 0.000002 -0.000007 -4.704956 0.000000 -0.000000 -0.000003 165.000000 -180.000000 161.818207 0.000001 0.000000 -14.875997 0.000001 0.000002 -10.413196 0.000000 -0.000000 -0.000003 180.000000 179.999985 159.919556 180.000000 180.000000 159.919556 180.000000 180.000000 166.626419 0.000000 -0.000000 -0.000003 9.999999 -0.000001 -19.708267 180.000000 -180.000000 160.291733 180.000000 -179.999985 166.874298 0.000000 -0.000000 -0.000003 19.999994 0.000002 -23.722851 0.000001 0.000002 -35.584293 0.000004 -0.000001 -23.699135
-0.180632 97.033684 1.674919 177.288116 -178.878296 -179.978714 177.839828 175.360489 -179.953033 3.902200 0.110640 0.138184 174.871414 -176.002884 -179.825470 175.350601 175.736420 179.408630 4.685397 1.033644 -0.399746 4.909120 -3.663622 0.290120 0.527870 4.788679 -0.042547 0.526078 4.697062 -0.095201 2.477253 3.410291 0.071647 0.000000 -4.347154 -0.184749 0.000000 -5.071670 -0.191347 176.291214 -176.257294 -179.872528 2.146277 0.814213 -1.049342 8.074407 -5.296708 87.304329 4.727437 1.656200 1.344469 176.684036 176.573563 172.783844 46.559860 27.894396 -4.451025 180.000000 179.999985 -172.849655 0.000007 -0.000000 4.762142 0.000000 -0.000001 0.000000 14.999997 0.000003 21.889336 180.000000 180.000000 -162.090546 0.000001 -0.000000 12.536624 0.000000 -0.000001 0.000000 180.000000 180.000000 -158.030670 0.000000 0.000001 21.969326 180.000000 -180.000000 -165.368439 0.000000 -0.000001 0.000000 170.000000 179.999985 -154.737732 180.000000 179.999985 -154.737747 180.000000 -180.000000 -163.175339 0.000000 -0.000001 0.000000 160.000015 180.000000 -162.827515 0.000003 -0.000001 25.758766 0.000000 0.000002 17.155325 177.481567 -177.463974 179.033646 165.560898 -171.618851 96.107147 176.782242 -177.027496 178.506790 5.889683 1.413643 3.459686 140.102295 137.313065 -178.662628 0.000000 0.000000 -7.079287 180.000000 179.999985 175.285202 0.000000 -0.000000 0.000000 165.000000 180.000000 161.812820 179.999985 179.999985 165.119568 180.000000 180.000000 169.583694 0.000000 -0.000000 0.000000 180.000000 -179.999985 159.910812 180.000000 179.999985 159.910812 180.000000 179.999985 166.620590 0.000000 -0.000000 0.000000 9.999996 -0.000001 -19.715340 0.000001 0.000004 -19.715330 180.000000 179.999985 166.869553 0.000000 -0.000000 0.000000 20.000006 -0.000001 -23.732132 180.000000 179.999985 144.401779 0.000001 0.000002 -23.708406
-0.172623 97.031380 1.699750 177.273865 -178.889587 -179.974258 177.821121 175.347610 -179.964935 3.925820 0.089800 0.133654 174.877686 -175.999695 -179.817154 175.326843 175.725739 179.396393 4.714860 1.025252 -0.401702 4.918768 -3.677872 0.293018 0.530385 4.798838 -0.048804 0.527286 4.707026 -0.097930 2.483365 3.417693 0.068970 0.000001 -4.329974 -0.186749 0.000002 -5.051630 -0.193419 176.272491 -176.271973 -179.873474 2.147992 0.774809 -1.074951 8.085631 -5.262776 87.311806 4.741608 1.646911 1.358188 176.676483 176.580093 172.799255 46.579521 27.898537 -4.453574 179.999985 179.999985 -172.860352 179.999985 179.999985 -175.244995 0.000000 -0.000000 0.000000 14.999997 0.000005 21.889109 0.000000 -0.000000 17.909283 180.000000 179.999985 -167.463486 0.000000 -0.000000 0.000000 0.000001 0.000003 21.963730 180.000000 179.999985 -158.036285 0.000000 0.000000 14.627844 0.000000 -0.000000 0.000000 170.000000 179.999985 -154.716400 180.000000 180.000000 -154.716400 180.000000 -180.000000 -163.161133 0.000000 -0.000000 0.000000 160.000015 -179.999985 -162.822403 179.999985 -180.000000 -154.233627 180.000000 179.999985 -162.839584 177.462784 -177.450348 179.052307 165.558670 -171.588699 96.104591 176.800278 -176.969131 178.490982 5.887585 1.467232 3.474825 140.100800 137.310547 -178.675613 0.000003 0.000000 -7.084563 0.000005 -0.000007 -4.718322 0.000000 -0.000001 0.000000 164.999985 -180.000000 161.798492 180.000000 -179.999985 165.107880 180.000000 179.999985 169.575516 0.000000 -0.000001 0.000000 180.000000 180.000000 159.899353 180.000000 179.999985 159.899353 180.000000 180.000000 166.612961 0.000000 -0.000001 0.000000 10.000003 0.000001 -19.721861 180.000000 -180.000000 160.278168 180.000000 179.999985 166.865265 0.000000 -0.000001 0.000000 20.000008 -0.000001 -23.732325 180.000000 179.999985 144.401550 180.000000 179.999985 156.291428
